<svg width="49" height="48" viewBox="0 0 49 48" fill="none" xmlns="http://www.w3.org/2000/svg">
<path d="M32.5 32L24.5 24L16.5 32" stroke="black" stroke-opacity="0.4" stroke-width="2" stroke-linecap="round" stroke-linejoin="round"/>
<path d="M24.5 24V42" stroke="black" stroke-opacity="0.4" stroke-width="2" stroke-linecap="round" stroke-linejoin="round"/>
<path d="M41.28 36.78C43.2307 35.7165 44.7717 34.0338 45.6598 31.9973C46.5478 29.9607 46.7324 27.6865 46.1844 25.5334C45.6364 23.3803 44.387 21.471 42.6334 20.1069C40.8797 18.7428 38.7217 18.0015 36.5 18H33.98C33.3746 15.6585 32.2463 13.4847 30.6799 11.642C29.1135 9.7993 27.1497 8.3357 24.9362 7.36121C22.7227 6.38673 20.3171 5.92672 17.9002 6.01576C15.4834 6.10481 13.1181 6.7406 10.9824 7.87533C8.84658 9.01006 6.99583 10.6142 5.56926 12.5672C4.14268 14.5201 3.17739 16.7711 2.74597 19.1508C2.31455 21.5305 2.42822 23.9771 3.07844 26.3065C3.72865 28.636 4.8985 30.7877 6.50001 32.6" stroke="black" stroke-opacity="0.4" stroke-width="2" stroke-linecap="round" stroke-linejoin="round"/>
<path d="M32.5 32L24.5 24L16.5 32" stroke="black" stroke-opacity="0.4" stroke-width="2" stroke-linecap="round" stroke-linejoin="round"/>
</svg>
