<svg width="120" height="32" viewBox="0 0 120 32" fill="none" xmlns="http://www.w3.org/2000/svg">
<path fill-rule="evenodd" clip-rule="evenodd" d="M0 0V10.0751H10.303C15.8817 10.0751 20.404 5.56433 20.404 0H0ZM20.404 10.0751C17.7511 10.0751 15.1241 10.5963 12.6731 11.609C10.222 12.6216 7.99499 14.1059 6.11905 15.977C4.24313 17.8481 2.75505 20.0695 1.73981 22.5143C0.72456 24.9589 0.20202 27.5792 0.20202 30.2254H10.303C10.303 28.9023 10.5643 27.5921 11.0719 26.3698C11.5796 25.1475 12.3236 24.0368 13.2616 23.1012C14.1995 22.1657 15.313 21.4235 16.5385 20.9172C17.7641 20.4108 19.0776 20.1502 20.404 20.1502V30.4269H30.505V10.0751H20.404Z" fill="#ADFF45"/>
<path d="M46.3178 14.0685L44.3709 14.6181C44.2485 14.2945 44.0679 13.98 43.8293 13.6747C43.5966 13.3633 43.2782 13.1068 42.8741 12.9053C42.4701 12.7038 41.9529 12.6031 41.3222 12.6031C40.4592 12.6031 39.7398 12.8015 39.1644 13.1984C38.5949 13.5892 38.3103 14.0869 38.3103 14.6914C38.3103 15.2287 38.5063 15.6531 38.898 15.9645C39.2899 16.2759 39.902 16.5354 40.7345 16.743L42.8283 17.2559C44.0893 17.5612 45.0291 18.0284 45.6475 18.6573C46.2657 19.2801 46.5747 20.0831 46.5747 21.0661C46.5747 21.8721 46.3422 22.5927 45.877 23.2278C45.4178 23.8627 44.7749 24.3635 43.9485 24.7298C43.1222 25.0961 42.161 25.2795 41.0652 25.2795C39.6267 25.2795 38.436 24.968 37.4931 24.3451C36.5503 23.7223 35.9535 22.8125 35.7024 21.6158L37.7594 21.1027C37.9554 21.86 38.3257 22.4278 38.8705 22.8065C39.4214 23.1851 40.1408 23.3743 41.0285 23.3743C42.0386 23.3743 42.8406 23.1605 43.4343 22.7331C44.0343 22.2997 44.3343 21.7806 44.3343 21.1761C44.3343 20.6877 44.1628 20.2784 43.82 19.9487C43.4772 19.6129 42.9507 19.3626 42.2406 19.1977L39.8899 18.6481C38.5982 18.3428 37.6493 17.8696 37.0432 17.2285C36.4432 16.5812 36.1432 15.7721 36.1432 14.8013C36.1432 14.0075 36.3667 13.3053 36.8135 12.6947C37.2667 12.084 37.8818 11.6047 38.6594 11.2567C39.4428 10.9086 40.3305 10.7346 41.3222 10.7346C42.7182 10.7346 43.8139 11.0399 44.6097 11.6505C45.4117 12.2611 45.981 13.0671 46.3178 14.0685ZM55.7507 25.2795C54.3917 25.2795 53.2194 24.9803 52.2337 24.3818C51.2541 23.7773 50.4982 22.9346 49.9657 21.854C49.439 20.767 49.1758 19.503 49.1758 18.062C49.1758 16.6209 49.439 15.3508 49.9657 14.2517C50.4982 13.1465 51.239 12.2855 52.1879 11.6688C53.1428 11.046 54.257 10.7346 55.5303 10.7346C56.2648 10.7346 56.9903 10.8567 57.7067 11.101C58.4228 11.3452 59.0747 11.7421 59.6626 12.2917C60.2503 12.8351 60.7186 13.5556 61.0675 14.4532C61.4164 15.3508 61.5909 16.456 61.5909 17.7689V18.6848H50.7186V16.8163H59.3871C59.3871 16.0225 59.2279 15.3142 58.9095 14.6914C58.5974 14.0685 58.1505 13.577 57.5689 13.2167C56.9933 12.8565 56.3139 12.6763 55.5303 12.6763C54.6671 12.6763 53.9202 12.8901 53.2897 13.3175C52.6653 13.7388 52.1846 14.2884 51.8481 14.9661C51.5113 15.6439 51.343 16.3705 51.343 17.146V18.3917C51.343 19.4542 51.5267 20.3548 51.8939 21.0937C52.2673 21.8263 52.7846 22.3851 53.4459 22.7698C54.1071 23.1484 54.8754 23.3376 55.7507 23.3376C56.32 23.3376 56.8343 23.2582 57.2933 23.0994C57.7586 22.9346 58.1596 22.6904 58.4964 22.3668C58.8329 22.0371 59.0931 21.6279 59.2768 21.1394L61.3705 21.7256C61.1501 22.4339 60.7798 23.0567 60.2594 23.5941C59.739 24.1253 59.0964 24.5406 58.3311 24.8398C57.5659 25.1328 56.7057 25.2795 55.7507 25.2795ZM64.8875 24.9863V10.9178H66.9812V13.0427H67.1281C67.3853 12.3466 67.8505 11.7818 68.5238 11.3483C69.1974 10.9147 69.9564 10.6979 70.8012 10.6979C70.9604 10.6979 71.1594 10.701 71.398 10.7071C71.6368 10.7132 71.8174 10.7224 71.9398 10.7346V12.9328C71.8665 12.9145 71.698 12.887 71.4347 12.8504C71.1778 12.8076 70.9053 12.7862 70.6176 12.7862C69.9319 12.7862 69.3198 12.9297 68.781 13.2167C68.2485 13.4976 67.8261 13.8884 67.5137 14.3891C67.2077 14.8837 67.0545 15.4485 67.0545 16.0836V24.9863H64.8875ZM83.3976 19.2343V10.9178H85.5646V24.9863H83.3976V22.6049H83.2507C82.9202 23.3193 82.4059 23.9268 81.7081 24.4275C81.0101 24.9222 80.1285 25.1695 79.0634 25.1695C78.1818 25.1695 77.3982 24.9772 76.7125 24.5924C76.0269 24.2017 75.4883 23.6155 75.0964 22.8339C74.7046 22.0462 74.5087 21.054 74.5087 19.8572V10.9178H76.6758V19.7106C76.6758 20.7364 76.9636 21.5547 77.539 22.1653C78.1206 22.7758 78.8614 23.0811 79.7612 23.0811C80.3 23.0811 80.8479 22.9439 81.405 22.669C81.9681 22.3942 82.4396 21.9728 82.8192 21.405C83.2048 20.8372 83.3976 20.1136 83.3976 19.2343ZM91.701 6.22826V24.9863H89.5339V6.22826H91.701ZM99.821 25.316C98.9271 25.316 98.116 25.1481 97.3875 24.8122C96.659 24.4703 96.0804 23.9788 95.6519 23.3376C95.2234 22.6904 95.0091 21.9088 95.0091 20.9929C95.0091 20.1869 95.1683 19.5335 95.4867 19.0328C95.8051 18.526 96.2305 18.1291 96.763 17.8421C97.2958 17.5551 97.8834 17.3414 98.5263 17.201C99.1751 17.0544 99.8271 16.9384 100.482 16.8529C101.339 16.743 102.034 16.6606 102.567 16.6056C103.105 16.5446 103.497 16.4438 103.742 16.3034C103.993 16.1629 104.118 15.9187 104.118 15.5706V15.4974C104.118 14.5937 103.871 13.8915 103.375 13.3907C102.885 12.8901 102.141 12.6397 101.143 12.6397C100.109 12.6397 99.2976 12.8656 98.7099 13.3175C98.1222 13.7693 97.7089 14.2517 97.4701 14.7646L95.4131 14.0319C95.7806 13.177 96.2703 12.5115 96.8824 12.0352C97.5008 11.5528 98.1741 11.217 98.9026 11.0277C99.6374 10.8323 100.36 10.7346 101.07 10.7346C101.523 10.7346 102.043 10.7896 102.631 10.8995C103.225 11.0033 103.797 11.22 104.348 11.5498C104.905 11.8795 105.367 12.3771 105.735 13.0427C106.102 13.7083 106.286 14.5998 106.286 15.7172V24.9863H104.118V23.0811H104.008C103.861 23.3866 103.617 23.7132 103.274 24.0612C102.931 24.4092 102.475 24.7054 101.905 24.9496C101.336 25.1939 100.641 25.316 99.821 25.316ZM100.152 23.3743C101.008 23.3743 101.731 23.2064 102.319 22.8705C102.913 22.5346 103.359 22.1012 103.659 21.5698C103.965 21.0387 104.118 20.4799 104.118 19.8938V17.9154C104.027 18.0253 103.825 18.1261 103.512 18.2177C103.206 18.3031 102.851 18.3795 102.447 18.4466C102.049 18.5077 101.661 18.5627 101.281 18.6115C100.907 18.6543 100.604 18.6909 100.372 18.7214C99.8087 18.7947 99.2822 18.9137 98.7925 19.0786C98.3089 19.2374 97.917 19.4786 97.6172 19.8022C97.3232 20.1197 97.1764 20.5533 97.1764 21.1027C97.1764 21.8539 97.455 22.4218 98.0119 22.8065C98.5752 23.1851 99.2883 23.3743 100.152 23.3743ZM114.135 14.5082C113.357 14.5082 112.647 14.3189 112.004 13.9403C111.367 13.5617 110.859 13.0549 110.48 12.4199C110.1 11.7787 109.911 11.0704 109.911 10.2949C109.911 9.51946 110.1 8.8142 110.48 8.17917C110.859 7.53803 111.367 7.02817 112.004 6.64958C112.647 6.271 113.357 6.08171 114.135 6.08171C114.912 6.08171 115.619 6.271 116.256 6.64958C116.899 7.02817 117.41 7.53803 117.789 8.17917C118.169 8.8142 118.359 9.51946 118.359 10.2949C118.359 11.0704 118.169 11.7787 117.789 12.4199C117.41 13.0549 116.899 13.5617 116.256 13.9403C115.619 14.3189 114.912 14.5082 114.135 14.5082ZM114.135 12.6763C114.575 12.6763 114.976 12.5695 115.337 12.3558C115.699 12.1421 115.986 11.8551 116.201 11.4948C116.415 11.1345 116.522 10.7346 116.522 10.2949C116.522 9.85531 116.415 9.45534 116.201 9.0951C115.986 8.73483 115.699 8.44783 115.337 8.23412C114.976 8.02041 114.575 7.91355 114.135 7.91355C113.694 7.91355 113.293 8.02041 112.932 8.23412C112.57 8.44783 112.283 8.73483 112.068 9.0951C111.854 9.45534 111.747 9.85531 111.747 10.2949C111.747 10.7346 111.854 11.1345 112.068 11.4948C112.283 11.8551 112.57 12.1421 112.932 12.3558C113.293 12.5695 113.694 12.6763 114.135 12.6763Z" fill="white"/>
</svg>
